<svg width="25" height="24" viewBox="0 0 25 24" fill="none" xmlns="http://www.w3.org/2000/svg">
<path d="M11.4998 18.7498C11.4013 18.7503 11.3036 18.7311 11.2126 18.6933C11.1216 18.6555 11.0391 18.6 10.9698 18.5298L4.96983 12.5298C4.82938 12.3892 4.75049 12.1986 4.75049 11.9998C4.75049 11.8011 4.82938 11.6105 4.96983 11.4698L10.9698 5.46985C11.112 5.33737 11.3 5.26524 11.4944 5.26867C11.6887 5.2721 11.874 5.35081 12.0114 5.48822C12.1489 5.62564 12.2276 5.81102 12.231 6.00532C12.2344 6.19963 12.1623 6.38767 12.0298 6.52985L6.55983 11.9998L12.0298 17.4698C12.1703 17.6105 12.2492 17.8011 12.2492 17.9998C12.2492 18.1986 12.1703 18.3892 12.0298 18.5298C11.9606 18.6 11.878 18.6555 11.787 18.6933C11.696 18.7311 11.5984 18.7503 11.4998 18.7498Z" fill="#5856D6"/>
<path d="M19.5 12.75H5.5C5.30109 12.75 5.11032 12.671 4.96967 12.5303C4.82902 12.3897 4.75 12.1989 4.75 12C4.75 11.8011 4.82902 11.6103 4.96967 11.4697C5.11032 11.329 5.30109 11.25 5.5 11.25H19.5C19.6989 11.25 19.8897 11.329 20.0303 11.4697C20.171 11.6103 20.25 11.8011 20.25 12C20.25 12.1989 20.171 12.3897 20.0303 12.5303C19.8897 12.671 19.6989 12.75 19.5 12.75Z" fill="#5856D6"/>
</svg>
