<svg width="28" height="29" viewBox="0 0 28 29" fill="none" xmlns="http://www.w3.org/2000/svg">
<path d="M14 25C11.9233 25 9.89323 24.3842 8.16652 23.2304C6.4398 22.0767 5.09399 20.4368 4.29927 18.5182C3.50455 16.5996 3.29661 14.4884 3.70176 12.4516C4.1069 10.4148 5.10693 8.54383 6.57538 7.07538C8.04383 5.60693 9.91476 4.6069 11.9516 4.20176C13.9884 3.79661 16.0996 4.00455 18.0182 4.79927C19.9368 5.59399 21.5767 6.9398 22.7304 8.66652C23.8842 10.3932 24.5 12.4233 24.5 14.5C24.5 17.2848 23.3938 19.9555 21.4246 21.9246C19.4555 23.8938 16.7848 25 14 25ZM14 5.75C12.2694 5.75 10.5777 6.26318 9.13877 7.22465C7.69984 8.18611 6.57833 9.55267 5.91606 11.1515C5.25379 12.7504 5.08051 14.5097 5.41813 16.207C5.75575 17.9044 6.58911 19.4635 7.81282 20.6872C9.03653 21.9109 10.5956 22.7443 12.293 23.0819C13.9903 23.4195 15.7496 23.2462 17.3485 22.584C18.9473 21.9217 20.3139 20.8002 21.2754 19.3612C22.2368 17.9223 22.75 16.2306 22.75 14.5C22.75 12.1794 21.8281 9.95376 20.1872 8.31282C18.5462 6.67188 16.3206 5.75 14 5.75Z" fill="#111827"/>
</svg>
