<svg width="28" height="28" viewBox="0 0 28 28" fill="none" xmlns="http://www.w3.org/2000/svg">
<rect width="28" height="28" rx="14" fill="#E7E7E7"/>
<path d="M14.0002 14.2917C13.1349 14.2917 12.289 14.0351 11.5695 13.5543C10.8501 13.0736 10.2893 12.3903 9.95819 11.5909C9.62706 10.7915 9.54042 9.9118 9.70923 9.06314C9.87804 8.21447 10.2947 7.43492 10.9066 6.82307C11.5184 6.21121 12.298 5.79453 13.1466 5.62572C13.9953 5.45691 14.875 5.54355 15.6744 5.87469C16.4738 6.20582 17.1571 6.76657 17.6378 7.48604C18.1186 8.2055 18.3752 9.05136 18.3752 9.91666C18.3752 11.077 17.9142 12.1898 17.0938 13.0103C16.2733 13.8307 15.1605 14.2917 14.0002 14.2917ZM14.0002 7.29166C13.481 7.29166 12.9735 7.44561 12.5418 7.73405C12.1101 8.02249 11.7737 8.43246 11.575 8.91211C11.3763 9.39177 11.3243 9.91957 11.4256 10.4288C11.5269 10.938 11.7769 11.4057 12.144 11.7728C12.5111 12.1399 12.9789 12.3899 13.4881 12.4912C13.9973 12.5925 14.5251 12.5405 15.0047 12.3418C15.4844 12.1432 15.8943 11.8067 16.1828 11.375C16.4712 10.9434 16.6252 10.4358 16.6252 9.91666C16.6252 9.22046 16.3486 8.55279 15.8563 8.0605C15.364 7.56822 14.6964 7.29166 14.0002 7.29166Z" fill="#1E242E"/>
<path d="M22.1668 22.4583C21.9357 22.4553 21.7149 22.3621 21.5515 22.1987C21.388 22.0353 21.2949 21.8144 21.2918 21.5833C21.2918 19.3083 20.0552 17.7917 14.0002 17.7917C7.94516 17.7917 6.7085 19.3083 6.7085 21.5833C6.7085 21.8154 6.61631 22.038 6.45221 22.202C6.28812 22.3661 6.06556 22.4583 5.8335 22.4583C5.60143 22.4583 5.37887 22.3661 5.21478 22.202C5.05068 22.038 4.9585 21.8154 4.9585 21.5833C4.9585 16.0417 11.2935 16.0417 14.0002 16.0417C16.7068 16.0417 23.0418 16.0417 23.0418 21.5833C23.0388 21.8144 22.9457 22.0353 22.7822 22.1987C22.6188 22.3621 22.398 22.4553 22.1668 22.4583Z" fill="#1E242E"/>
</svg>
